<svg xmlns="http://www.w3.org/2000/svg" width="162.031" height="142" viewBox="0 0 162.031 142">
  <defs>
  </defs>
  <path class="cls-1" d="M149.85,12.889a45.344,45.344,0,0,0-63.372,0,44.875,44.875,0,0,0-4.531,5.289,44.854,44.854,0,0,0-4.525-5.289,45.344,45.344,0,0,0-63.371,0,43.569,43.569,0,0,0,0,62.339l67.9,66.8,67.9-66.8A43.581,43.581,0,0,0,149.85,12.889Zm-9.055,53.439L81.948,124.216S26.329,69.5,23.1,66.328a31.135,31.135,0,0,1,0-44.532,32.393,32.393,0,0,1,45.268,0c2.992,2.937,13.58,13.358,13.58,13.358L95.527,21.8a32.393,32.393,0,0,1,45.268,0A31.135,31.135,0,0,1,140.795,66.328ZM115.723,26.592v6.653A13.418,13.418,0,0,1,129.25,46.551a13.138,13.138,0,0,1-3.962,9.408l4.781,4.7a19.734,19.734,0,0,0,5.944-14.111A20.131,20.131,0,0,0,115.723,26.592Z" transform="translate(-0.938)"/>
</svg>
