<svg xmlns="http://www.w3.org/2000/svg" width="137" height="137" viewBox="0 0 137 137">
  <defs>
    <style>
      .cls-1 {
        fill: #130e27;
        fill-rule: evenodd;
      }
    </style>
  </defs>
  <path class="cls-1" d="M483.63,939.489l11.042-11.042a28.508,28.508,0,0,0,30.582-6.364l4.035-4.036a22.828,22.828,0,0,0,0-32.288l-4.035,4.035-16.141,16.142a5.707,5.707,0,0,1-8.071-8.071l16.141-16.141,4.036-4.036a22.829,22.829,0,0,0-32.288,0l-4.036,4.036a28.508,28.508,0,0,0-6.364,30.582l-15.077,15.077L409.891,873.82,399,871l2.82,10.891,53.563,53.562-51.2,51.2a11.412,11.412,0,0,0,16.142,16.137l47.164-47.16,49,49a11.413,11.413,0,0,0,16.142-16.138Zm5.3-53.73,4.04-4.035a17.059,17.059,0,0,1,19.436-3.294l-15.4,15.4a11.414,11.414,0,1,0,16.141,16.142l15.4-15.4a17.071,17.071,0,0,1-3.294,19.442l-4.035,4.035A22.831,22.831,0,0,1,488.931,885.759Zm-7.664,31.881a28.547,28.547,0,0,0,8.071,8.071L475.56,939.489l-8.071-8.071Zm-64.978,81.118a5.706,5.706,0,1,1-8.07-8.069l8.07-8.071,8.071,8.071Zm4.036-20.175,39.093-39.094,8.071,8.071L428.4,986.653ZM472.1,952.169l8.071-8.07,36.323,36.322-8.07,8.071Zm56.5,48.431a5.7,5.7,0,0,1-8.07,0l-8.071-8.073,8.071-8.07,8.07,8.07A5.707,5.707,0,0,1,528.6,1000.6Z" transform="translate(-399 -871)"/>
</svg>
