<svg xmlns="http://www.w3.org/2000/svg" width="116" height="155" viewBox="0 0 116 155">
  <defs>
    <style>
      .cls-1 {
        fill: #130e27;
        fill-rule: evenodd;
      }
    </style>
  </defs>
  <path class="cls-1" d="M746,860a58.008,58.008,0,0,0-54.627,77.5l15.961,32.292c1.718,2.838,3.75,5.411,6.507,6.143-0.006.108-.063,0.2-0.063,0.315v6.458a6.448,6.448,0,0,0,6.444,6.459v6.458a6.445,6.445,0,0,0,6.445,6.455v6.46a6.449,6.449,0,0,0,6.444,6.46h25.778a6.449,6.449,0,0,0,6.444-6.46v-6.46a6.445,6.445,0,0,0,6.445-6.455v-6.458a6.448,6.448,0,0,0,6.444-6.459V976.25a3.4,3.4,0,0,0-.075-0.353c2.82-.808,5.173-3.4,6.52-6.105l15.96-32.292A58.008,58.008,0,0,0,746,860Zm12.889,148.54H733.111v-6.46h25.778v6.46Zm6.444-12.915H726.667v-6.458h38.666v6.458Zm6.445-12.917H720.222V976.25h51.556v6.458ZM786.712,937.5l-12.92,25.833H718.347L705.288,937.5A45.111,45.111,0,1,1,786.712,937.5ZM746,879.375v6.458a32.255,32.255,0,0,1,32.222,32.292h6.445A38.711,38.711,0,0,0,746,879.375Z" transform="translate(-688 -860)"/>
</svg>
