<svg xmlns="http://www.w3.org/2000/svg" width="150" height="150" viewBox="0 0 150 150">
  <defs>
    <style>
      .cls-1 {
        fill: #130e27;
        fill-rule: evenodd;
      }
    </style>
  </defs>
  <path class="cls-1" d="M1017,866a75,75,0,1,0,75,75A75,75,0,0,0,1017,866Zm6.25,137.19v-5.94a6.25,6.25,0,0,0-12.5,0v5.94a62.524,62.524,0,0,1-55.933-55.94h5.933a6.25,6.25,0,0,0,0-12.5h-5.933a62.511,62.511,0,0,1,55.933-55.935v5.935a6.25,6.25,0,0,0,12.5,0v-5.935a62.51,62.51,0,0,1,55.93,55.935h-5.93a6.25,6.25,0,0,0,0,12.5h5.93A62.522,62.522,0,0,1,1023.25,1003.19Zm-19.51-48.932,8.84,26.513,35.36-70.716-70.71,35.358Zm10,10.222-4.07-12.2-0.98-2.966-2.97-.99-12.206-4.064,40.446-20.228Z" transform="translate(-942 -866)"/>
</svg>
